<?xml version="1.0" encoding="iso-8859-1"?>
<!-- Generator: Adobe Illustrator 19.0.0, SVG Export Plug-In . SVG Version: 6.00 Build 0)  -->
<svg version="1.1" id="Capa_1" xmlns="http://www.w3.org/2000/svg" xmlns:xlink="http://www.w3.org/1999/xlink" x="0px" y="0px"
	 viewBox="0 0 512 512" style="enable-background:new 0 0 512 512;" xml:space="preserve">
<g>
	<g>
		<path d="M313.166,355.966h-1.43v-25.834c0-30.775-25.036-55.812-55.812-55.812c-30.775,0-55.813,25.037-55.813,55.812v25.834
			h-1.429c-12.703,0-23.037,10.334-23.037,23.036v79.359c0,23.276,18.937,42.212,42.213,42.212h76.132
			c23.276,0,42.213-18.936,42.213-42.212v-79.359C336.202,366.3,325.867,355.966,313.166,355.966z M281.77,355.966h-51.693v-25.834
			h0c0-14.252,11.595-25.846,25.847-25.846c14.252,0,25.846,11.595,25.846,25.846V355.966z"/>
	</g>
</g>
<g>
	<g>
		<path d="M337.079,241.719c-15.686-30.62-46.789-49.64-81.17-49.64c-34.181,0-65.2,18.859-80.954,49.219
			c-3.811,7.346-0.946,16.388,6.399,20.2c7.344,3.811,16.387,0.947,20.2-6.399c10.58-20.389,31.407-33.055,54.355-33.055
			c23.082,0,43.966,12.774,54.5,33.336c2.653,5.178,7.903,8.155,13.347,8.155c2.299,0,4.634-0.531,6.819-1.651
			C337.939,258.112,340.851,249.083,337.079,241.719z"/>
	</g>
</g>
<g>
	<g>
		<path d="M396.814,216.899c-27.247-53.183-81.269-86.221-140.985-86.221c-59.368,0-113.246,32.759-140.609,85.493
			c-3.811,7.346-0.946,16.389,6.399,20.2c7.344,3.811,16.388,0.947,20.2-6.399c22.189-42.764,65.876-69.33,114.011-69.33
			c48.418,0,92.222,26.791,114.316,69.919c2.652,5.178,7.902,8.155,13.347,8.155c2.298,0,4.633-0.531,6.818-1.651
			C397.675,233.292,400.587,224.264,396.814,216.899z"/>
	</g>
</g>
<g>
	<g>
		<path d="M456.638,193.219c-18.654-36.414-46.885-67.127-81.641-88.82c-35.749-22.313-77.022-34.108-119.359-34.108
			c-42.132,0-83.235,11.689-118.866,33.801c-34.634,21.494-62.85,51.955-81.6,88.088c-3.811,7.346-0.946,16.389,6.399,20.2
			c7.346,3.81,16.388,0.947,20.2-6.399c33.838-65.214,100.46-105.726,173.867-105.726c36.722,0,72.508,10.222,103.492,29.563
			c30.158,18.824,54.655,45.473,70.839,77.063c2.652,5.178,7.902,8.155,13.346,8.155c2.299,0,4.634-0.531,6.82-1.651
			C457.5,209.612,460.411,200.583,456.638,193.219z"/>
	</g>
</g>
<g>
	<g>
		<path d="M510.348,167.177c-23.636-46.137-59.407-85.052-103.444-112.539c-45.292-28.269-97.584-43.212-151.225-43.212
			c-53.381,0-105.458,14.808-150.599,42.824C61.196,81.483,25.443,120.077,1.686,165.861c-3.811,7.346-0.946,16.388,6.399,20.2
			c7.344,3.811,16.388,0.947,20.2-6.399c21.274-40.999,53.292-75.563,92.595-99.954c40.392-25.068,87.005-38.319,134.798-38.319
			c48.026,0,94.832,13.371,135.36,38.666c39.44,24.619,71.476,59.468,92.642,100.783c2.652,5.178,7.903,8.155,13.346,8.155
			c2.299,0,4.634-0.53,6.82-1.651C511.21,183.57,514.121,174.541,510.348,167.177z"/>
	</g>
</g>
<g>
</g>
<g>
</g>
<g>
</g>
<g>
</g>
<g>
</g>
<g>
</g>
<g>
</g>
<g>
</g>
<g>
</g>
<g>
</g>
<g>
</g>
<g>
</g>
<g>
</g>
<g>
</g>
<g>
</g>
</svg>
