<svg width="48" height="60" viewBox="0 0 48 60" fill="none" xmlns="http://www.w3.org/2000/svg">
<path d="M48.0005 48.9905C48.0005 58.8573 34.3039 60.0003 24.0005 60.0003C22.962 60.0003 21.9386 59.9853 20.9333 59.9553C19.7378 59.9253 18.796 58.9323 18.8322 57.7413C18.8654 56.5533 19.8978 55.6594 21.0571 55.6504C22.0231 55.6774 23.0043 55.6894 24.0005 55.6894C37.048 55.6894 43.6654 53.4364 43.6654 48.9905C43.6654 44.5026 37.048 42.2257 24.0005 42.2257C10.9529 42.2257 4.33558 44.4816 4.33558 48.9305C4.33558 50.3855 4.85483 52.4944 9.362 54.0124C10.4971 54.3934 11.1039 55.6144 10.7205 56.7393C10.3341 57.8643 9.10841 58.4793 7.9703 58.0893C1.38313 55.8724 0.000488281 51.8855 0.000488281 48.9305C0.000488281 39.2622 13.1438 37.9681 23.3656 37.9193L25.143 37.9199C31.9599 37.9547 48.0005 38.5566 48.0005 48.9905ZM24.0005 0.000244141C32.9122 0.000244141 40.1605 7.20606 40.1605 16.0618C40.1605 24.9146 32.9122 32.1204 24.0005 32.1204C15.0888 32.1204 7.83747 24.9146 7.83747 16.0618C7.83747 7.20606 15.0888 0.000244141 24.0005 0.000244141ZM24.0005 4.31114C17.4797 4.31114 12.1756 9.58201 12.1756 16.0618C12.1756 22.5387 17.4797 27.8096 24.0005 27.8096C30.5212 27.8096 35.8254 22.5387 35.8254 16.0618C35.8254 9.58201 30.5212 4.31114 24.0005 4.31114Z" fill="#00438B"/>
</svg>
